inDegrees=yes
name=ik_lifting_orientations
DataType=double
version=3
OpenSimVersion=4.5-2024-01-10-34fd6af
endheader
time	pelvis_tilt	pelvis_list	pelvis_rotation	pelvis_tx	pelvis_ty	pelvis_tz	hip_flexion_r	hip_adduction_r	hip_rotation_r	knee_angle_r	knee_angle_r_beta	ankle_angle_r	subtalar_angle_r	mtp_angle_r	hip_flexion_l	hip_adduction_l	hip_rotation_l	knee_angle_l	knee_angle_l_beta	ankle_angle_l	subtalar_angle_l	mtp_angle_l	lumbar_extension	lumbar_bending	lumbar_rotation	arm_flex_r	arm_add_r	arm_rot_r	elbow_flex_r	pro_sup_r	wrist_flex_r	wrist_dev_r	arm_flex_l	arm_add_l	arm_rot_l	elbow_flex_l	pro_sup_l	wrist_flex_l	wrist_dev_l
1.59	1.520261732303419	25.24752641113998	-103.8442961160126	0	0.9399999998679526	0	43.8603278586427	-10.09200001185245	0	58.23450376387911	1.016383828944721	-5.021742421789209	0	0	43.8603278586427	-10.09200001185245	0	58.23450376387911	1.016383828944721	-5.021742421789209	0	0	-42.3601734252937	-3.552706036724587	12.55169998185125	56.31290163226519	-17.29219118332314	-0.9943714431906063	55.24743885044602	4.463571416738522	0	0	0	-10.95242704482904	0	85.57961314139297	4.463571416738522	0	0
1.6	1.323888546196115	23.97384724031052	-102.9169144959859	0	0.9399999998679526	0	43.86886298806058	-10.09036682339699	0	58.24771430653579	1.016614396410055	-5.021282141106483	0	0	43.86886298806058	-10.09036682339699	0	58.24771430653579	1.016614396410055	-5.021282141106483	0	0	-42.20550711467681	-2.741282373405213	11.79518718587083	55.04199141625228	-17.30579193690586	-0.5218181224844075	55.70882935362273	4.437872681765845	0	0	0	-10.97095644405726	0	85.60506171954184	4.437872681765845	0	0
1.61	1.143919534863066	22.67901933155411	-101.988734347759	0	0.9399999998679526	0	43.8691814868115	-10.09027824106577	0	58.24810286703607	1.016621178070128	-5.021254946654697	0	0	43.8691814868115	-10.09027824106577	0	58.24810286703607	1.016621178070128	-5.021254946654697	0	0	-42.08249146933733	-1.944776948399232	10.98887347840257	53.52747352192511	-16.98700203401489	-0.7400028043709215	56.23416982775438	4.437000514281903	0	0	0	-10.97153903581189	0	85.60592537731614	4.437000514281903	0	0
1.62	0.9455332415944144	21.32631095571204	-100.8810496392646	0	0.9399999998679526	0	43.87686708723857	-10.08881888714279	0	58.25998768474076	1.016828607270074	-5.020844734599277	0	0	43.87686708723857	-10.08881888714279	0	58.25998768474076	1.016828607270074	-5.020844734599277	0	0	-41.77245013335074	-1.045785536593941	10.03379414977972	51.97939978819909	-16.40399896526835	-1.156131425553013	56.71352773038988	4.413830576573835	0	0	0	-10.98825938396076	0	85.62886978006016	4.413830576573835	0	0
1.63	0.7196769281320432	20.07726046958481	-99.54489660036874	0	0.9399999998679526	0	43.8859421620765	-10.08711613641202	0	58.27403102199619	1.01707370974315	-5.020368034149238	0	0	43.8859421620765	-10.08711613641202	0	58.27403102199619	1.01707370974315	-5.020368034149238	0	0	-41.36185715277089	-0.01664050686854439	8.940753925770929	50.52826088526791	-16.03029316037248	-1.134208256380061	56.83698629584579	4.38641763268941	0	0	0	-11.00806861973728	0	85.6560158991627	4.38641763268941	0	0
1.64	0.527114173453241	18.78929625414118	-98.24342122189523	0	0.9399999998679526	0	43.89308389802765	-10.08578996702103	0	58.28508081376644	1.0172665649912	-5.01999804015764	0	0	43.89308389802765	-10.08578996702103	0	58.28508081376644	1.0172665649912	-5.01999804015764	0	0	-40.90639933249593	1.02270078265443	7.64169672117993	49.45511310765983	-16.02886342649091	-0.2691703492611697	57.32380989498306	4.36480703614434	0	0	0	-11.0237037329422	0	85.67741615596137	4.36480703614434	0	0
1.65	0.419622396860753	17.49861403292043	-97.00818990461431	0	0.9399999998679526	0	43.90140724221084	-10.08425091711313	0	58.29792715846339	1.017490776003008	-5.019569403454703	0	0	43.90140724221084	-10.08425091711313	0	58.29792715846339	1.017490776003008	-5.019569403454703	0	0	-40.23724955757379	1.978104231754573	6.299745005724595	47.78411182287947	-16.08055773140885	0.3792330401789399	57.99856944671427	4.339608508875221	0	0	0	-11.04193975475406	0	85.7023694236412	4.339608508875221	0	0
1.66	0.2425243507197756	16.16741275991164	-95.35382756637028	0	0.9399999998679526	0	43.91067461610952	-10.08256872077085	0	58.31228391067244	1.017741348598949	-5.019103629230003	0	0	43.91067461610952	-10.08256872077085	0	58.31228391067244	1.017741348598949	-5.019103629230003	0	0	-39.42258621985009	3.093037839525155	4.7511109042235	45.77113128520434	-15.76998343047174	0.4456463477077304	58.61164168027027	4.311458330283853	0	0	0	-11.06236019903085	0	85.73024563353735	4.311458330283853	0	0
